<mxfile host="Electron" modified="2024-12-18T02:55:21.996Z" agent="Mozilla/5.0 (Windows NT 10.0; Win64; x64) AppleWebKit/537.36 (KHTML, like Gecko) draw.io/24.2.5 Chrome/120.0.6099.109 Electron/28.1.0 Safari/537.36" etag="qnjtELX7kRLzQwTMMe4s" version="24.2.5" type="device">
  <diagram id="C5RBs43oDa-KdzZeNtuy" name="Page-1">
    <mxGraphModel dx="3189" dy="215" grid="1" gridSize="10" guides="1" tooltips="1" connect="1" arrows="1" fold="1" page="1" pageScale="1" pageWidth="827" pageHeight="1169" math="0" shadow="0">
      <root>
        <mxCell id="WIyWlLk6GJQsqaUBKTNV-0" />
        <mxCell id="WIyWlLk6GJQsqaUBKTNV-1" parent="WIyWlLk6GJQsqaUBKTNV-0" />
        <mxCell id="4AU1inOxKgs4NgpyJQrt-75" value="" style="rounded=0;whiteSpace=wrap;html=1;shadow=0;" parent="WIyWlLk6GJQsqaUBKTNV-1" vertex="1">
          <mxGeometry x="-760" y="1350" width="280" height="520" as="geometry" />
        </mxCell>
        <mxCell id="4AU1inOxKgs4NgpyJQrt-69" value="&lt;font color=&quot;#ffffff&quot; style=&quot;font-size: 18px;&quot;&gt;前端&lt;/font&gt;" style="rounded=1;whiteSpace=wrap;html=1;fillColor=#3399FF;" parent="WIyWlLk6GJQsqaUBKTNV-1" vertex="1">
          <mxGeometry x="-720" y="1230" width="200" height="80" as="geometry" />
        </mxCell>
        <mxCell id="4AU1inOxKgs4NgpyJQrt-70" value="&lt;font color=&quot;#ffffff&quot; style=&quot;font-size: 18px;&quot;&gt;网关&lt;/font&gt;" style="rounded=1;whiteSpace=wrap;html=1;fillColor=#3399FF;" parent="WIyWlLk6GJQsqaUBKTNV-1" vertex="1">
          <mxGeometry x="-720" y="1390" width="200" height="80" as="geometry" />
        </mxCell>
        <mxCell id="4AU1inOxKgs4NgpyJQrt-71" value="&lt;font color=&quot;#ffffff&quot; style=&quot;font-size: 18px;&quot;&gt;过滤器&lt;/font&gt;" style="rounded=1;whiteSpace=wrap;html=1;fillColor=#3399FF;" parent="WIyWlLk6GJQsqaUBKTNV-1" vertex="1">
          <mxGeometry x="-720" y="1510" width="200" height="80" as="geometry" />
        </mxCell>
        <mxCell id="4AU1inOxKgs4NgpyJQrt-72" value="&lt;font color=&quot;#ffffff&quot; style=&quot;font-size: 18px;&quot;&gt;拦截器&lt;/font&gt;" style="rounded=1;whiteSpace=wrap;html=1;fillColor=#3399FF;" parent="WIyWlLk6GJQsqaUBKTNV-1" vertex="1">
          <mxGeometry x="-720" y="1630" width="200" height="80" as="geometry" />
        </mxCell>
        <mxCell id="4AU1inOxKgs4NgpyJQrt-73" value="&lt;font color=&quot;#ffffff&quot; style=&quot;font-size: 18px;&quot;&gt;控制器&lt;/font&gt;" style="rounded=1;whiteSpace=wrap;html=1;fillColor=#3399FF;" parent="WIyWlLk6GJQsqaUBKTNV-1" vertex="1">
          <mxGeometry x="-720" y="1750" width="200" height="80" as="geometry" />
        </mxCell>
        <mxCell id="4AU1inOxKgs4NgpyJQrt-74" value="&lt;font color=&quot;#ffffff&quot; style=&quot;font-size: 18px;&quot;&gt;服务&lt;/font&gt;" style="rounded=1;whiteSpace=wrap;html=1;fillColor=#3399FF;" parent="WIyWlLk6GJQsqaUBKTNV-1" vertex="1">
          <mxGeometry x="-720" y="1910" width="200" height="80" as="geometry" />
        </mxCell>
        <mxCell id="4AU1inOxKgs4NgpyJQrt-77" value="&lt;font color=&quot;#ffffff&quot; style=&quot;font-size: 18px;&quot;&gt;登录认证&lt;/font&gt;" style="rounded=1;whiteSpace=wrap;html=1;fillColor=#3399FF;" parent="WIyWlLk6GJQsqaUBKTNV-1" vertex="1">
          <mxGeometry x="-340" y="1350" width="200" height="80" as="geometry" />
        </mxCell>
        <mxCell id="4AU1inOxKgs4NgpyJQrt-78" value="&lt;font color=&quot;#ffffff&quot; style=&quot;font-size: 18px;&quot;&gt;权限认证&lt;/font&gt;" style="rounded=1;whiteSpace=wrap;html=1;fillColor=#3399FF;" parent="WIyWlLk6GJQsqaUBKTNV-1" vertex="1">
          <mxGeometry x="-340" y="1790" width="200" height="80" as="geometry" />
        </mxCell>
        <mxCell id="4AU1inOxKgs4NgpyJQrt-81" value="&lt;font style=&quot;font-size: 18px;&quot;&gt;Token是否过期&lt;/font&gt;" style="rhombus;whiteSpace=wrap;html=1;fillColor=#E6D0DE;" parent="WIyWlLk6GJQsqaUBKTNV-1" vertex="1">
          <mxGeometry x="615" y="1290" width="170" height="80" as="geometry" />
        </mxCell>
        <mxCell id="4AU1inOxKgs4NgpyJQrt-82" value="&lt;font style=&quot;font-size: 18px;&quot;&gt;Token是否有效&lt;/font&gt;" style="rhombus;whiteSpace=wrap;html=1;fillColor=#E6D0DE;" parent="WIyWlLk6GJQsqaUBKTNV-1" vertex="1">
          <mxGeometry x="320" y="1290" width="170" height="80" as="geometry" />
        </mxCell>
        <mxCell id="4AU1inOxKgs4NgpyJQrt-83" value="&lt;font style=&quot;font-size: 18px;&quot;&gt;是否提供token?&lt;/font&gt;" style="rhombus;whiteSpace=wrap;html=1;fillColor=#E6D0DE;" parent="WIyWlLk6GJQsqaUBKTNV-1" vertex="1">
          <mxGeometry x="30" y="1290" width="170" height="80" as="geometry" />
        </mxCell>
        <mxCell id="4AU1inOxKgs4NgpyJQrt-84" value="Toekns是否被顶下线" style="rhombus;whiteSpace=wrap;html=1;fillColor=#E6D0DE;" parent="WIyWlLk6GJQsqaUBKTNV-1" vertex="1">
          <mxGeometry x="30" y="1460" width="170" height="80" as="geometry" />
        </mxCell>
        <mxCell id="4AU1inOxKgs4NgpyJQrt-85" value="Token是否被踢下线" style="rhombus;whiteSpace=wrap;html=1;fillColor=#E6D0DE;" parent="WIyWlLk6GJQsqaUBKTNV-1" vertex="1">
          <mxGeometry x="320" y="1460" width="170" height="80" as="geometry" />
        </mxCell>
        <mxCell id="4AU1inOxKgs4NgpyJQrt-86" value="&lt;font style=&quot;font-size: 18px;&quot;&gt;认证成功&lt;/font&gt;" style="rhombus;whiteSpace=wrap;html=1;fillColor=#E6D0DE;" parent="WIyWlLk6GJQsqaUBKTNV-1" vertex="1">
          <mxGeometry x="615" y="1460" width="170" height="80" as="geometry" />
        </mxCell>
        <mxCell id="4AU1inOxKgs4NgpyJQrt-87" value="&lt;font color=&quot;#ffffff&quot; style=&quot;font-size: 18px;&quot;&gt;触发登录认证&lt;/font&gt;" style="rounded=0;whiteSpace=wrap;html=1;fillColor=#E6D0DE;" parent="WIyWlLk6GJQsqaUBKTNV-1" vertex="1">
          <mxGeometry x="40" y="1790" width="170" height="80" as="geometry" />
        </mxCell>
        <mxCell id="4AU1inOxKgs4NgpyJQrt-88" value="&lt;font color=&quot;#ffffff&quot; style=&quot;font-size: 18px;&quot;&gt;进行权限认证&lt;/font&gt;" style="rhombus;whiteSpace=wrap;html=1;fillColor=#E6D0DE;" parent="WIyWlLk6GJQsqaUBKTNV-1" vertex="1">
          <mxGeometry x="320" y="1790" width="170" height="80" as="geometry" />
        </mxCell>
        <mxCell id="4AU1inOxKgs4NgpyJQrt-89" value="&lt;font color=&quot;#ffffff&quot; style=&quot;font-size: 18px;&quot;&gt;认证成功&lt;/font&gt;" style="rounded=1;whiteSpace=wrap;html=1;fillColor=#E6D0DE;" parent="WIyWlLk6GJQsqaUBKTNV-1" vertex="1">
          <mxGeometry x="600" y="1790" width="200" height="80" as="geometry" />
        </mxCell>
        <mxCell id="4AU1inOxKgs4NgpyJQrt-90" value="&lt;font style=&quot;font-size: 18px;&quot;&gt;未登录异常&lt;/font&gt;" style="rounded=1;whiteSpace=wrap;html=1;fillColor=#3399FF;" parent="WIyWlLk6GJQsqaUBKTNV-1" vertex="1">
          <mxGeometry x="880" y="1360" width="200" height="80" as="geometry" />
        </mxCell>
        <mxCell id="4AU1inOxKgs4NgpyJQrt-91" value="&lt;font style=&quot;font-size: 18px;&quot;&gt;权限不足异常&lt;/font&gt;" style="rounded=1;whiteSpace=wrap;html=1;fillColor=#3399FF;" parent="WIyWlLk6GJQsqaUBKTNV-1" vertex="1">
          <mxGeometry x="880" y="1790" width="200" height="80" as="geometry" />
        </mxCell>
        <mxCell id="4AU1inOxKgs4NgpyJQrt-92" value="" style="endArrow=classic;html=1;rounded=0;exitX=0.5;exitY=1;exitDx=0;exitDy=0;entryX=0.5;entryY=0;entryDx=0;entryDy=0;" parent="WIyWlLk6GJQsqaUBKTNV-1" source="4AU1inOxKgs4NgpyJQrt-95" target="4AU1inOxKgs4NgpyJQrt-74" edge="1">
          <mxGeometry width="50" height="50" relative="1" as="geometry">
            <mxPoint x="200" y="1730" as="sourcePoint" />
            <mxPoint x="250" y="1680" as="targetPoint" />
          </mxGeometry>
        </mxCell>
        <mxCell id="4AU1inOxKgs4NgpyJQrt-96" value="" style="endArrow=classic;html=1;rounded=0;exitX=0.5;exitY=1;exitDx=0;exitDy=0;entryX=0.5;entryY=0;entryDx=0;entryDy=0;" parent="WIyWlLk6GJQsqaUBKTNV-1" source="4AU1inOxKgs4NgpyJQrt-69" target="4AU1inOxKgs4NgpyJQrt-95" edge="1">
          <mxGeometry width="50" height="50" relative="1" as="geometry">
            <mxPoint x="-620" y="1310" as="sourcePoint" />
            <mxPoint x="-620" y="1910" as="targetPoint" />
          </mxGeometry>
        </mxCell>
        <mxCell id="4AU1inOxKgs4NgpyJQrt-95" value="提交token" style="text;html=1;align=center;verticalAlign=middle;whiteSpace=wrap;rounded=0;" parent="WIyWlLk6GJQsqaUBKTNV-1" vertex="1">
          <mxGeometry x="-650" y="1320" width="60" height="30" as="geometry" />
        </mxCell>
        <mxCell id="4AU1inOxKgs4NgpyJQrt-97" value="" style="endArrow=classic;html=1;rounded=0;exitX=1.014;exitY=0.079;exitDx=0;exitDy=0;exitPerimeter=0;" parent="WIyWlLk6GJQsqaUBKTNV-1" source="4AU1inOxKgs4NgpyJQrt-75" target="4AU1inOxKgs4NgpyJQrt-77" edge="1">
          <mxGeometry width="50" height="50" relative="1" as="geometry">
            <mxPoint x="200" y="1730" as="sourcePoint" />
            <mxPoint x="250" y="1680" as="targetPoint" />
          </mxGeometry>
        </mxCell>
        <mxCell id="4AU1inOxKgs4NgpyJQrt-98" value="" style="endArrow=classic;html=1;rounded=0;exitX=1.014;exitY=0.079;exitDx=0;exitDy=0;exitPerimeter=0;" parent="WIyWlLk6GJQsqaUBKTNV-1" edge="1">
          <mxGeometry width="50" height="50" relative="1" as="geometry">
            <mxPoint x="-480" y="1830.17" as="sourcePoint" />
            <mxPoint x="-344" y="1829.17" as="targetPoint" />
          </mxGeometry>
        </mxCell>
        <mxCell id="4AU1inOxKgs4NgpyJQrt-99" value="" style="endArrow=classic;html=1;rounded=0;exitX=1.014;exitY=0.079;exitDx=0;exitDy=0;exitPerimeter=0;entryX=0;entryY=0.5;entryDx=0;entryDy=0;" parent="WIyWlLk6GJQsqaUBKTNV-1" target="4AU1inOxKgs4NgpyJQrt-87" edge="1">
          <mxGeometry width="50" height="50" relative="1" as="geometry">
            <mxPoint x="-136" y="1830.17" as="sourcePoint" />
            <mxPoint y="1829.17" as="targetPoint" />
          </mxGeometry>
        </mxCell>
        <mxCell id="4AU1inOxKgs4NgpyJQrt-100" value="" style="endArrow=classic;html=1;rounded=0;entryX=0;entryY=0.5;entryDx=0;entryDy=0;" parent="WIyWlLk6GJQsqaUBKTNV-1" target="4AU1inOxKgs4NgpyJQrt-88" edge="1">
          <mxGeometry width="50" height="50" relative="1" as="geometry">
            <mxPoint x="210" y="1830" as="sourcePoint" />
            <mxPoint x="376" y="1830" as="targetPoint" />
          </mxGeometry>
        </mxCell>
        <mxCell id="4AU1inOxKgs4NgpyJQrt-101" value="" style="endArrow=classic;html=1;rounded=0;entryX=0;entryY=0.5;entryDx=0;entryDy=0;" parent="WIyWlLk6GJQsqaUBKTNV-1" edge="1">
          <mxGeometry width="50" height="50" relative="1" as="geometry">
            <mxPoint x="490" y="1830" as="sourcePoint" />
            <mxPoint x="600" y="1830" as="targetPoint" />
          </mxGeometry>
        </mxCell>
        <mxCell id="4AU1inOxKgs4NgpyJQrt-102" value="" style="endArrow=classic;html=1;rounded=0;exitX=0.5;exitY=0;exitDx=0;exitDy=0;entryX=0.5;entryY=1;entryDx=0;entryDy=0;" parent="WIyWlLk6GJQsqaUBKTNV-1" source="4AU1inOxKgs4NgpyJQrt-87" target="4AU1inOxKgs4NgpyJQrt-77" edge="1">
          <mxGeometry width="50" height="50" relative="1" as="geometry">
            <mxPoint x="200" y="1730" as="sourcePoint" />
            <mxPoint x="250" y="1680" as="targetPoint" />
            <Array as="points">
              <mxPoint x="125" y="1670" />
              <mxPoint x="-240" y="1670" />
            </Array>
          </mxGeometry>
        </mxCell>
        <mxCell id="4AU1inOxKgs4NgpyJQrt-105" value="" style="endArrow=classic;html=1;rounded=0;entryX=0;entryY=0.5;entryDx=0;entryDy=0;" parent="WIyWlLk6GJQsqaUBKTNV-1" target="4AU1inOxKgs4NgpyJQrt-83" edge="1">
          <mxGeometry width="50" height="50" relative="1" as="geometry">
            <mxPoint x="-140" y="1390" as="sourcePoint" />
            <mxPoint x="-90" y="1340" as="targetPoint" />
            <Array as="points">
              <mxPoint x="-40" y="1390" />
              <mxPoint x="-40" y="1330" />
            </Array>
          </mxGeometry>
        </mxCell>
        <mxCell id="4AU1inOxKgs4NgpyJQrt-107" value="" style="endArrow=none;html=1;rounded=0;entryX=0.5;entryY=1;entryDx=0;entryDy=0;" parent="WIyWlLk6GJQsqaUBKTNV-1" target="4AU1inOxKgs4NgpyJQrt-84" edge="1">
          <mxGeometry width="50" height="50" relative="1" as="geometry">
            <mxPoint x="115" y="1290" as="sourcePoint" />
            <mxPoint x="20" y="1570" as="targetPoint" />
            <Array as="points">
              <mxPoint x="115" y="1230" />
              <mxPoint x="800" y="1230" />
              <mxPoint x="800" y="1590" />
              <mxPoint x="115" y="1590" />
            </Array>
          </mxGeometry>
        </mxCell>
        <mxCell id="4AU1inOxKgs4NgpyJQrt-115" value="N" style="edgeLabel;html=1;align=center;verticalAlign=middle;resizable=0;points=[];" parent="4AU1inOxKgs4NgpyJQrt-107" vertex="1" connectable="0">
          <mxGeometry x="-0.9601" y="-1" relative="1" as="geometry">
            <mxPoint as="offset" />
          </mxGeometry>
        </mxCell>
        <mxCell id="4AU1inOxKgs4NgpyJQrt-118" value="Y" style="edgeLabel;html=1;align=center;verticalAlign=middle;resizable=0;points=[];" parent="4AU1inOxKgs4NgpyJQrt-107" vertex="1" connectable="0">
          <mxGeometry x="0.9728" y="4" relative="1" as="geometry">
            <mxPoint as="offset" />
          </mxGeometry>
        </mxCell>
        <mxCell id="4AU1inOxKgs4NgpyJQrt-111" value="" style="endArrow=none;html=1;rounded=0;exitX=0.5;exitY=0;exitDx=0;exitDy=0;" parent="WIyWlLk6GJQsqaUBKTNV-1" source="4AU1inOxKgs4NgpyJQrt-82" edge="1">
          <mxGeometry width="50" height="50" relative="1" as="geometry">
            <mxPoint x="350" y="1280" as="sourcePoint" />
            <mxPoint x="405" y="1230" as="targetPoint" />
          </mxGeometry>
        </mxCell>
        <mxCell id="4AU1inOxKgs4NgpyJQrt-116" value="N" style="edgeLabel;html=1;align=center;verticalAlign=middle;resizable=0;points=[];" parent="4AU1inOxKgs4NgpyJQrt-111" vertex="1" connectable="0">
          <mxGeometry x="0.2222" y="2" relative="1" as="geometry">
            <mxPoint as="offset" />
          </mxGeometry>
        </mxCell>
        <mxCell id="4AU1inOxKgs4NgpyJQrt-112" value="" style="endArrow=none;html=1;rounded=0;exitX=0.5;exitY=0;exitDx=0;exitDy=0;" parent="WIyWlLk6GJQsqaUBKTNV-1" edge="1">
          <mxGeometry width="50" height="50" relative="1" as="geometry">
            <mxPoint x="700" y="1290" as="sourcePoint" />
            <mxPoint x="700" y="1230" as="targetPoint" />
          </mxGeometry>
        </mxCell>
        <mxCell id="4AU1inOxKgs4NgpyJQrt-117" value="Y" style="edgeLabel;html=1;align=center;verticalAlign=middle;resizable=0;points=[];" parent="4AU1inOxKgs4NgpyJQrt-112" vertex="1" connectable="0">
          <mxGeometry x="0.1667" y="2" relative="1" as="geometry">
            <mxPoint as="offset" />
          </mxGeometry>
        </mxCell>
        <mxCell id="4AU1inOxKgs4NgpyJQrt-113" value="" style="endArrow=none;html=1;rounded=0;exitX=0.5;exitY=0;exitDx=0;exitDy=0;" parent="WIyWlLk6GJQsqaUBKTNV-1" edge="1">
          <mxGeometry width="50" height="50" relative="1" as="geometry">
            <mxPoint x="404.17" y="1590" as="sourcePoint" />
            <mxPoint x="404" y="1540" as="targetPoint" />
          </mxGeometry>
        </mxCell>
        <mxCell id="4AU1inOxKgs4NgpyJQrt-119" value="Y" style="edgeLabel;html=1;align=center;verticalAlign=middle;resizable=0;points=[];" parent="4AU1inOxKgs4NgpyJQrt-113" vertex="1" connectable="0">
          <mxGeometry x="0.0668" y="1" relative="1" as="geometry">
            <mxPoint as="offset" />
          </mxGeometry>
        </mxCell>
        <mxCell id="4AU1inOxKgs4NgpyJQrt-120" value="" style="endArrow=classic;html=1;rounded=0;entryX=0.5;entryY=0;entryDx=0;entryDy=0;exitX=0.5;exitY=1;exitDx=0;exitDy=0;" parent="WIyWlLk6GJQsqaUBKTNV-1" source="4AU1inOxKgs4NgpyJQrt-81" target="4AU1inOxKgs4NgpyJQrt-85" edge="1">
          <mxGeometry width="50" height="50" relative="1" as="geometry">
            <mxPoint x="535" y="1434" as="sourcePoint" />
            <mxPoint x="585" y="1384" as="targetPoint" />
            <Array as="points">
              <mxPoint x="700" y="1420" />
              <mxPoint x="405" y="1420" />
            </Array>
          </mxGeometry>
        </mxCell>
        <mxCell id="4AU1inOxKgs4NgpyJQrt-121" value="N" style="edgeLabel;html=1;align=center;verticalAlign=middle;resizable=0;points=[];" parent="4AU1inOxKgs4NgpyJQrt-120" vertex="1" connectable="0">
          <mxGeometry x="0.0306" y="-1" relative="1" as="geometry">
            <mxPoint as="offset" />
          </mxGeometry>
        </mxCell>
        <mxCell id="4AU1inOxKgs4NgpyJQrt-122" value="" style="endArrow=classic;html=1;rounded=0;entryX=0;entryY=0.5;entryDx=0;entryDy=0;" parent="WIyWlLk6GJQsqaUBKTNV-1" target="4AU1inOxKgs4NgpyJQrt-90" edge="1">
          <mxGeometry width="50" height="50" relative="1" as="geometry">
            <mxPoint x="800" y="1400" as="sourcePoint" />
            <mxPoint x="850" y="1365" as="targetPoint" />
          </mxGeometry>
        </mxCell>
        <mxCell id="4AU1inOxKgs4NgpyJQrt-123" value="" style="endArrow=classic;html=1;rounded=0;entryX=0;entryY=0.5;entryDx=0;entryDy=0;" parent="WIyWlLk6GJQsqaUBKTNV-1" target="4AU1inOxKgs4NgpyJQrt-91" edge="1">
          <mxGeometry width="50" height="50" relative="1" as="geometry">
            <mxPoint x="800" y="1830" as="sourcePoint" />
            <mxPoint x="850" y="1780" as="targetPoint" />
          </mxGeometry>
        </mxCell>
      </root>
    </mxGraphModel>
  </diagram>
</mxfile>
